solid flipflat
facet normal -3.455841277632231e-16 3.6017679721155e-17 1.0
  outer loop
    vertex 72.15925499230822 -38.48128166084153 2.4999999999999996
    vertex 69.60925499230824 16.518718339158468 2.4999999999999956
    vertex 69.60925499230824 -38.314145830662675 2.4999999999999982
  endloop
endfacet
facet normal -3.455841277632231e-16 3.6017679721155e-17 1.0
  outer loop
    vertex 69.60925499230824 16.518718339158468 2.4999999999999956
    vertex 72.15925499230822 -38.48128166084153 2.4999999999999996
    vertex 74.70925499230823 16.518718339158468 2.4999999999999973
  endloop
endfacet
facet normal -3.455841277632231e-16 3.6017679721155e-17 1.0
  outer loop
    vertex 74.70925499230823 16.518718339158468 2.4999999999999973
    vertex 72.15925499230822 -38.48128166084153 2.4999999999999996
    vertex 74.70925499230823 -38.314145830662675 2.4999999999999996
  endloop
endfacet
facet normal 0.3214394653031625 0.9469301294951054 0.0
  outer loop
    vertex 85.10020724743431 59.81500965361186 3.9999999999999996
    vertex 91.29342661056276 57.71269496472278 0.0
    vertex 85.10020724743431 59.81500965361186 0.0
  endloop
endfacet
facet normal 0.3214394653031625 0.9469301294951054 0.0
  outer loop
    vertex 91.29342661056276 57.71269496472278 0.0
    vertex 85.10020724743431 59.81500965361186 3.9999999999999996
    vertex 91.29342661056276 57.71269496472278 3.9999999999999996
  endloop
endfacet
facet normal 0.8314696123025457 0.5555702330196014 0.0
  outer loop
    vertex 111.82692200687002 41.956789789594445 0.0
    vertex 115.46052518153019 36.51871833915842 3.9999999999999996
    vertex 115.46052518153019 36.51871833915842 0.0
  endloop
endfacet
facet normal 0.8314696123025457 0.5555702330196014 0.0
  outer loop
    vertex 115.46052518153019 36.51871833915842 3.9999999999999996
    vertex 111.82692200687002 41.956789789594445 0.0
    vertex 111.82692200687002 41.956789789594445 3.9999999999999996
  endloop
endfacet
facet normal 0.8968727415326884 0.44228869021900147 0.0
  outer loop
    vertex 115.46052518153019 36.51871833915842 0.0
    vertex 118.35323161787258 30.65288995741293 3.9999999999999996
    vertex 118.35323161787258 30.65288995741293 0.0
  endloop
endfacet
facet normal 0.8968727415326884 0.44228869021900147 0.0
  outer loop
    vertex 118.35323161787258 30.65288995741293 3.9999999999999996
    vertex 115.46052518153019 36.51871833915842 0.0
    vertex 115.46052518153019 36.51871833915842 3.9999999999999996
  endloop
endfacet
facet normal 0.7518398074789785 0.6593458151000675 0.0
  outer loop
    vertex 107.51459405163561 46.87405739848584 0.0
    vertex 111.82692200687002 41.956789789594445 3.9999999999999996
    vertex 111.82692200687002 41.956789789594445 0.0
  endloop
endfacet
facet normal 0.7518398074789785 0.6593458151000675 0.0
  outer loop
    vertex 111.82692200687002 41.956789789594445 3.9999999999999996
    vertex 107.51459405163561 46.87405739848584 0.0
    vertex 107.51459405163561 46.87405739848584 3.9999999999999996
  endloop
endfacet
facet normal 0.8314696123025442 -0.5555702330196038 0.0
  outer loop
    vertex 115.46052518153016 -13.481281660841555 0.0
    vertex 111.82692200686998 -18.91935311127758 3.9999999999999996
    vertex 111.82692200686998 -18.91935311127758 0.0
  endloop
endfacet
facet normal 0.8314696123025442 -0.5555702330196038 0.0
  outer loop
    vertex 111.82692200686998 -18.91935311127758 3.9999999999999996
    vertex 115.46052518153016 -13.481281660841555 0.0
    vertex 115.46052518153016 -13.481281660841555 3.9999999999999996
  endloop
endfacet
facet normal 0.8968727415326889 -0.4422886902190001 0.0
  outer loop
    vertex 118.35323161787255 -7.615453279096044 0.0
    vertex 115.46052518153016 -13.481281660841555 3.9999999999999996
    vertex 115.46052518153016 -13.481281660841555 0.0
  endloop
endfacet
facet normal 0.8968727415326889 -0.4422886902190001 0.0
  outer loop
    vertex 115.46052518153016 -13.481281660841555 3.9999999999999996
    vertex 118.35323161787255 -7.615453279096044 0.0
    vertex 118.35323161787255 -7.615453279096044 3.9999999999999996
  endloop
endfacet
facet normal 0.44228869021900086 0.8968727415326887 0.0
  outer loop
    vertex 91.29342661056276 57.71269496472278 3.9999999999999996
    vertex 97.15925499230825 54.819988528380385 0.0
    vertex 91.29342661056276 57.71269496472278 0.0
  endloop
endfacet
facet normal 0.44228869021900086 0.8968727415326887 0.0
  outer loop
    vertex 97.15925499230825 54.819988528380385 0.0
    vertex 91.29342661056276 57.71269496472278 3.9999999999999996
    vertex 97.15925499230825 54.819988528380385 3.9999999999999996
  endloop
endfacet
facet normal 0.9807852804032303 0.19509032201612905 0.0
  outer loop
    vertex 120.45554630676166 24.459670594284493 0.0
    vertex 121.73149806099877 18.045027950161025 3.9999999999999996
    vertex 121.73149806099877 18.045027950161025 0.0
  endloop
endfacet
facet normal 0.9807852804032303 0.19509032201612905 0.0
  outer loop
    vertex 121.73149806099877 18.045027950161025 3.9999999999999996
    vertex 120.45554630676166 24.459670594284493 0.0
    vertex 120.45554630676166 24.459670594284493 3.9999999999999996
  endloop
endfacet
facet normal -1.4936566116588588e-32 -1.0 3.601767972115501e-17
  outer loop
    vertex 74.70925499230823 16.518718339158468 2.4999999999999973
    vertex 69.60925499230824 16.518718339158468 3.9999999999999956
    vertex 69.60925499230824 16.518718339158468 2.4999999999999956
  endloop
endfacet
facet normal -1.4936566116588588e-32 -1.0 3.601767972115501e-17
  outer loop
    vertex 69.60925499230824 16.518718339158468 3.9999999999999956
    vertex 74.70925499230823 16.518718339158468 2.4999999999999973
    vertex 74.70925499230823 16.518718339158468 3.999999999999998
  endloop
endfacet
facet normal 0.9978589232386038 0.0654031292301408 0.0
  outer loop
    vertex 121.73149806099877 18.045027950161025 0.0
    vertex 122.15925499230823 11.518718339158466 3.9999999999999996
    vertex 122.15925499230823 11.518718339158466 0.0
  endloop
endfacet
facet normal 0.9978589232386038 0.0654031292301408 0.0
  outer loop
    vertex 122.15925499230823 11.518718339158466 3.9999999999999996
    vertex 121.73149806099877 18.045027950161025 0.0
    vertex 121.73149806099877 18.045027950161025 3.9999999999999996
  endloop
endfacet
facet normal 0.9469301294951054 0.3214394653031625 0.0
  outer loop
    vertex 118.35323161787258 30.65288995741293 0.0
    vertex 120.45554630676166 24.459670594284493 3.9999999999999996
    vertex 120.45554630676166 24.459670594284493 0.0
  endloop
endfacet
facet normal 0.9469301294951054 0.3214394653031625 0.0
  outer loop
    vertex 120.45554630676166 24.459670594284493 3.9999999999999996
    vertex 118.35323161787258 30.65288995741293 0.0
    vertex 118.35323161787258 30.65288995741293 3.9999999999999996
  endloop
endfacet
facet normal 0.9978589232386035 -0.06540312923014355 0.0
  outer loop
    vertex 122.15925499230823 11.518718339158466 0.0
    vertex 121.73149806099875 4.992408728155841 3.9999999999999996
    vertex 121.73149806099875 4.992408728155841 0.0
  endloop
endfacet
facet normal 0.9978589232386035 -0.06540312923014355 0.0
  outer loop
    vertex 121.73149806099875 4.992408728155841 3.9999999999999996
    vertex 122.15925499230823 11.518718339158466 0.0
    vertex 122.15925499230823 11.518718339158466 3.9999999999999996
  endloop
endfacet
facet normal 0.5555702330196038 0.8314696123025442 0.0
  outer loop
    vertex 97.15925499230825 54.819988528380385 3.9999999999999996
    vertex 102.59732644274428 51.1863853537202 0.0
    vertex 97.15925499230825 54.819988528380385 0.0
  endloop
endfacet
facet normal 0.5555702330196038 0.8314696123025442 0.0
  outer loop
    vertex 102.59732644274428 51.1863853537202 0.0
    vertex 97.15925499230825 54.819988528380385 3.9999999999999996
    vertex 102.59732644274428 51.1863853537202 3.9999999999999996
  endloop
endfacet
facet normal 0.9807852804032302 -0.19509032201612972 0.0
  outer loop
    vertex 121.73149806099875 4.992408728155841 0.0
    vertex 120.45554630676163 -1.4222339159676036 3.9999999999999996
    vertex 120.45554630676163 -1.4222339159676036 0.0
  endloop
endfacet
facet normal 0.9807852804032302 -0.19509032201612972 0.0
  outer loop
    vertex 120.45554630676163 -1.4222339159676036 3.9999999999999996
    vertex 121.73149806099875 4.992408728155841 0.0
    vertex 121.73149806099875 4.992408728155841 3.9999999999999996
  endloop
endfacet
facet normal 0.19509032201612939 0.9807852804032302 0.0
  outer loop
    vertex 78.68556460331087 61.09096140784897 3.9999999999999996
    vertex 85.10020724743431 59.81500965361186 0.0
    vertex 78.68556460331087 61.09096140784897 0.0
  endloop
endfacet
facet normal 0.19509032201612939 0.9807852804032302 0.0
  outer loop
    vertex 85.10020724743431 59.81500965361186 0.0
    vertex 78.68556460331087 61.09096140784897 3.9999999999999996
    vertex 85.10020724743431 59.81500965361186 3.9999999999999996
  endloop
endfacet
facet normal 1.0 0.0 0.0
  outer loop
    vertex 69.60925499230824 16.518718339158468 2.4999999999999956
    vertex 69.60925499230824 -38.314145830662675 3.9999999999999982
    vertex 69.60925499230824 -38.314145830662675 2.4999999999999982
  endloop
endfacet
facet normal 1.0 0.0 0.0
  outer loop
    vertex 69.60925499230824 -38.314145830662675 3.9999999999999982
    vertex 69.60925499230824 16.518718339158468 2.4999999999999956
    vertex 69.60925499230824 16.518718339158468 3.9999999999999956
  endloop
endfacet
facet normal -1.0 -9.745356571928395e-33 -3.455841277632231e-16
  outer loop
    vertex 74.70925499230823 16.518718339158468 3.999999999999998
    vertex 74.70925499230823 -38.314145830662675 2.4999999999999996
    vertex 74.70925499230823 -38.314145830662675 3.9999999999999996
  endloop
endfacet
facet normal -1.0 -9.745356571928395e-33 -3.455841277632231e-16
  outer loop
    vertex 74.70925499230823 -38.314145830662675 2.4999999999999996
    vertex 74.70925499230823 16.518718339158468 3.999999999999998
    vertex 74.70925499230823 16.518718339158468 2.4999999999999973
  endloop
endfacet
facet normal 0.9469301294951054 -0.3214394653031625 0.0
  outer loop
    vertex 120.45554630676163 -1.4222339159676036 0.0
    vertex 118.35323161787255 -7.615453279096044 3.9999999999999996
    vertex 118.35323161787255 -7.615453279096044 0.0
  endloop
endfacet
facet normal 0.9469301294951054 -0.3214394653031625 0.0
  outer loop
    vertex 118.35323161787255 -7.615453279096044 3.9999999999999996
    vertex 120.45554630676163 -1.4222339159676036 0.0
    vertex 120.45554630676163 -1.4222339159676036 3.9999999999999996
  endloop
endfacet
facet normal -0.9978589232386036 -0.0654031292301425 -0.0
  outer loop
    vertex 22.159254992308234 11.518718339158466 3.9999999999999996
    vertex 22.58701192361771 4.992408728155909 0.0
    vertex 22.58701192361771 4.992408728155909 3.9999999999999996
  endloop
endfacet
facet normal -0.9978589232386036 -0.0654031292301425 -0.0
  outer loop
    vertex 22.58701192361771 4.992408728155909 0.0
    vertex 22.159254992308234 11.518718339158466 3.9999999999999996
    vertex 22.159254992308234 11.518718339158466 0.0
  endloop
endfacet
facet normal 0.4422886902189994 -0.8968727415326893 0.0
  outer loop
    vertex 97.15925499230822 -31.78255185006348 3.9999999999999996
    vertex 91.2934266105627 -34.67525828640588 0.0
    vertex 97.15925499230822 -31.78255185006348 0.0
  endloop
endfacet
facet normal 0.4422886902189994 -0.8968727415326893 0.0
  outer loop
    vertex 91.2934266105627 -34.67525828640588 0.0
    vertex 97.15925499230822 -31.78255185006348 3.9999999999999996
    vertex 91.2934266105627 -34.67525828640588 3.9999999999999996
  endloop
endfacet
facet normal -0.831469612302545 0.5555702330196026 0.0
  outer loop
    vertex 32.49158797774648 41.956789789594495 3.9999999999999996
    vertex 28.857984803086303 36.51871833915847 0.0
    vertex 28.857984803086303 36.51871833915847 3.9999999999999996
  endloop
endfacet
facet normal -0.831469612302545 0.5555702330196026 0.0
  outer loop
    vertex 28.857984803086303 36.51871833915847 0.0
    vertex 32.49158797774648 41.956789789594495 3.9999999999999996
    vertex 32.49158797774648 41.956789789594495 0.0
  endloop
endfacet
facet normal 0.0 0.0 -1.0
  outer loop
    vertex 22.587011923617716 18.04502795016105 0.0
    vertex 22.58701192361771 4.992408728155909 0.0
    vertex 22.159254992308234 11.518718339158466 0.0
  endloop
endfacet
facet normal 0.0 0.0 -1.0
  outer loop
    vertex 22.58701192361771 4.992408728155909 0.0
    vertex 22.587011923617716 18.04502795016105 0.0
    vertex 23.862963677854818 -1.4222339159675585 0.0
  endloop
endfacet
facet normal 0.0 0.0 -1.0
  outer loop
    vertex 23.862963677854818 -1.4222339159675585 0.0
    vertex 22.587011923617716 18.04502795016105 0.0
    vertex 23.86296367785482 24.459670594284514 0.0
  endloop
endfacet
facet normal 0.0 0.0 -1.0
  outer loop
    vertex 23.862963677854818 -1.4222339159675585 0.0
    vertex 23.86296367785482 24.459670594284514 0.0
    vertex 25.965278366743892 -7.615453279096009 0.0
  endloop
endfacet
facet normal 0.0 0.0 -1.0
  outer loop
    vertex 25.965278366743892 -7.615453279096009 0.0
    vertex 23.86296367785482 24.459670594284514 0.0
    vertex 25.965278366743895 30.652889957412956 0.0
  endloop
endfacet
facet normal 0.0 0.0 -1.0
  outer loop
    vertex 25.965278366743892 -7.615453279096009 0.0
    vertex 25.965278366743895 30.652889957412956 0.0
    vertex 28.857984803086296 -13.481281660841521 0.0
  endloop
endfacet
facet normal 0.0 0.0 -1.0
  outer loop
    vertex 28.857984803086296 -13.481281660841521 0.0
    vertex 25.965278366743895 30.652889957412956 0.0
    vertex 28.857984803086303 36.51871833915847 0.0
  endloop
endfacet
facet normal 0.0 0.0 -1.0
  outer loop
    vertex 28.857984803086296 -13.481281660841521 0.0
    vertex 28.857984803086303 36.51871833915847 0.0
    vertex 32.49158797774646 -18.919353111277548 0.0
  endloop
endfacet
facet normal 0.0 0.0 -1.0
  outer loop
    vertex 32.49158797774646 -18.919353111277548 0.0
    vertex 28.857984803086303 36.51871833915847 0.0
    vertex 32.49158797774648 41.956789789594495 0.0
  endloop
endfacet
facet normal 0.0 0.0 -1.0
  outer loop
    vertex 32.49158797774646 -18.919353111277548 0.0
    vertex 32.49158797774648 41.956789789594495 0.0
    vertex 36.80391593298086 -23.836620720168906 0.0
  endloop
endfacet
facet normal 0.0 0.0 -1.0
  outer loop
    vertex 36.80391593298086 -23.836620720168906 0.0
    vertex 32.49158797774648 41.956789789594495 0.0
    vertex 36.80391593298086 46.87405739848584 0.0
  endloop
endfacet
facet normal 0.0 0.0 -1.0
  outer loop
    vertex 36.80391593298086 -23.836620720168906 0.0
    vertex 36.80391593298086 46.87405739848584 0.0
    vertex 41.72118354187221 51.186385353720226 0.0
  endloop
endfacet
facet normal 0.0 0.0 -1.0
  outer loop
    vertex 36.80391593298086 -23.836620720168906 0.0
    vertex 41.72118354187221 51.186385353720226 0.0
    vertex 41.72118354187219 -28.148948675403282 0.0
  endloop
endfacet
facet normal 0.0 0.0 -1.0
  outer loop
    vertex 41.72118354187219 -28.148948675403282 0.0
    vertex 41.72118354187221 51.186385353720226 0.0
    vertex 47.15925499230822 -31.78255185006346 0.0
  endloop
endfacet
facet normal 0.0 0.0 -1.0
  outer loop
    vertex 47.15925499230822 -31.78255185006346 0.0
    vertex 41.72118354187221 51.186385353720226 0.0
    vertex 47.159254992308234 54.81998852838041 0.0
  endloop
endfacet
facet normal 0.0 0.0 -1.0
  outer loop
    vertex 47.15925499230822 -31.78255185006346 0.0
    vertex 47.159254992308234 54.81998852838041 0.0
    vertex 53.02508337405374 -34.67525828640588 0.0
  endloop
endfacet
facet normal 0.0 0.0 -1.0
  outer loop
    vertex 53.02508337405374 -34.67525828640588 0.0
    vertex 47.159254992308234 54.81998852838041 0.0
    vertex 53.02508337405374 57.71269496472281 0.0
  endloop
endfacet
facet normal 0.0 0.0 -1.0
  outer loop
    vertex 53.02508337405374 -34.67525828640588 0.0
    vertex 53.02508337405374 57.71269496472281 0.0
    vertex 59.2183027371822 59.81500965361188 0.0
  endloop
endfacet
facet normal 0.0 0.0 -1.0
  outer loop
    vertex 53.02508337405374 -34.67525828640588 0.0
    vertex 59.2183027371822 59.81500965361188 0.0
    vertex 59.218302737182185 -36.777572975294945 0.0
  endloop
endfacet
facet normal 0.0 0.0 -1.0
  outer loop
    vertex 59.218302737182185 -36.777572975294945 0.0
    vertex 59.2183027371822 59.81500965361188 0.0
    vertex 65.63294538130563 -38.05352472953204 0.0
  endloop
endfacet
facet normal 0.0 0.0 -1.0
  outer loop
    vertex 65.63294538130563 -38.05352472953204 0.0
    vertex 59.2183027371822 59.81500965361188 0.0
    vertex 65.63294538130565 61.09096140784897 0.0
  endloop
endfacet
facet normal 0.0 0.0 -1.0
  outer loop
    vertex 65.63294538130563 -38.05352472953204 0.0
    vertex 65.63294538130565 61.09096140784897 0.0
    vertex 72.15925499230822 -38.48128166084153 0.0
  endloop
endfacet
facet normal 0.0 0.0 -1.0
  outer loop
    vertex 72.15925499230822 -38.48128166084153 0.0
    vertex 65.63294538130565 61.09096140784897 0.0
    vertex 72.15925499230823 61.51871833915846 0.0
  endloop
endfacet
facet normal 0.0 0.0 -1.0
  outer loop
    vertex 72.15925499230822 -38.48128166084153 0.0
    vertex 72.15925499230823 61.51871833915846 0.0
    vertex 78.68556460331081 -38.05352472953206 0.0
  endloop
endfacet
facet normal 0.0 0.0 -1.0
  outer loop
    vertex 78.68556460331081 -38.05352472953206 0.0
    vertex 72.15925499230823 61.51871833915846 0.0
    vertex 78.68556460331087 61.09096140784897 0.0
  endloop
endfacet
facet normal 0.0 0.0 -1.0
  outer loop
    vertex 78.68556460331081 -38.05352472953206 0.0
    vertex 78.68556460331087 61.09096140784897 0.0
    vertex 85.10020724743424 -36.77757297529496 0.0
  endloop
endfacet
facet normal 0.0 0.0 -1.0
  outer loop
    vertex 85.10020724743424 -36.77757297529496 0.0
    vertex 78.68556460331087 61.09096140784897 0.0
    vertex 85.10020724743431 59.81500965361186 0.0
  endloop
endfacet
facet normal 0.0 0.0 -1.0
  outer loop
    vertex 85.10020724743424 -36.77757297529496 0.0
    vertex 85.10020724743431 59.81500965361186 0.0
    vertex 91.2934266105627 -34.67525828640588 0.0
  endloop
endfacet
facet normal 0.0 0.0 -1.0
  outer loop
    vertex 91.2934266105627 -34.67525828640588 0.0
    vertex 85.10020724743431 59.81500965361186 0.0
    vertex 91.29342661056276 57.71269496472278 0.0
  endloop
endfacet
facet normal 0.0 0.0 -1.0
  outer loop
    vertex 91.2934266105627 -34.67525828640588 0.0
    vertex 91.29342661056276 57.71269496472278 0.0
    vertex 97.15925499230822 -31.78255185006348 0.0
  endloop
endfacet
facet normal 0.0 0.0 -1.0
  outer loop
    vertex 97.15925499230822 -31.78255185006348 0.0
    vertex 91.29342661056276 57.71269496472278 0.0
    vertex 97.15925499230825 54.819988528380385 0.0
  endloop
endfacet
facet normal 0.0 0.0 -1.0
  outer loop
    vertex 97.15925499230822 -31.78255185006348 0.0
    vertex 97.15925499230825 54.819988528380385 0.0
    vertex 102.59732644274426 -28.148948675403297 0.0
  endloop
endfacet
facet normal 0.0 0.0 -1.0
  outer loop
    vertex 102.59732644274426 -28.148948675403297 0.0
    vertex 97.15925499230825 54.819988528380385 0.0
    vertex 102.59732644274428 51.1863853537202 0.0
  endloop
endfacet
facet normal 0.0 0.0 -1.0
  outer loop
    vertex 102.59732644274426 -28.148948675403297 0.0
    vertex 102.59732644274428 51.1863853537202 0.0
    vertex 107.51459405163558 -23.83662072016893 0.0
  endloop
endfacet
facet normal 0.0 0.0 -1.0
  outer loop
    vertex 107.51459405163558 -23.83662072016893 0.0
    vertex 102.59732644274428 51.1863853537202 0.0
    vertex 107.51459405163561 46.87405739848584 0.0
  endloop
endfacet
facet normal 0.0 0.0 -1.0
  outer loop
    vertex 107.51459405163558 -23.83662072016893 0.0
    vertex 107.51459405163561 46.87405739848584 0.0
    vertex 111.82692200686998 -18.91935311127758 0.0
  endloop
endfacet
facet normal 0.0 0.0 -1.0
  outer loop
    vertex 111.82692200686998 -18.91935311127758 0.0
    vertex 107.51459405163561 46.87405739848584 0.0
    vertex 111.82692200687002 41.956789789594445 0.0
  endloop
endfacet
facet normal 0.0 0.0 -1.0
  outer loop
    vertex 111.82692200686998 -18.91935311127758 0.0
    vertex 111.82692200687002 41.956789789594445 0.0
    vertex 115.46052518153016 -13.481281660841555 0.0
  endloop
endfacet
facet normal 0.0 0.0 -1.0
  outer loop
    vertex 115.46052518153016 -13.481281660841555 0.0
    vertex 111.82692200687002 41.956789789594445 0.0
    vertex 115.46052518153019 36.51871833915842 0.0
  endloop
endfacet
facet normal 0.0 0.0 -1.0
  outer loop
    vertex 115.46052518153016 -13.481281660841555 0.0
    vertex 115.46052518153019 36.51871833915842 0.0
    vertex 118.35323161787255 -7.615453279096044 0.0
  endloop
endfacet
facet normal 0.0 0.0 -1.0
  outer loop
    vertex 118.35323161787255 -7.615453279096044 0.0
    vertex 115.46052518153019 36.51871833915842 0.0
    vertex 118.35323161787258 30.65288995741293 0.0
  endloop
endfacet
facet normal 0.0 0.0 -1.0
  outer loop
    vertex 118.35323161787255 -7.615453279096044 0.0
    vertex 118.35323161787258 30.65288995741293 0.0
    vertex 120.45554630676163 -1.4222339159676036 0.0
  endloop
endfacet
facet normal 0.0 0.0 -1.0
  outer loop
    vertex 120.45554630676163 -1.4222339159676036 0.0
    vertex 118.35323161787258 30.65288995741293 0.0
    vertex 120.45554630676166 24.459670594284493 0.0
  endloop
endfacet
facet normal 0.0 0.0 -1.0
  outer loop
    vertex 120.45554630676163 -1.4222339159676036 0.0
    vertex 120.45554630676166 24.459670594284493 0.0
    vertex 121.73149806099875 4.992408728155841 0.0
  endloop
endfacet
facet normal 0.0 0.0 -1.0
  outer loop
    vertex 121.73149806099875 4.992408728155841 0.0
    vertex 120.45554630676166 24.459670594284493 0.0
    vertex 121.73149806099877 18.045027950161025 0.0
  endloop
endfacet
facet normal 0.0 0.0 -1.0
  outer loop
    vertex 121.73149806099875 4.992408728155841 0.0
    vertex 121.73149806099877 18.045027950161025 0.0
    vertex 122.15925499230823 11.518718339158466 0.0
  endloop
endfacet
facet normal 0.7518398074789773 -0.6593458151000691 0.0
  outer loop
    vertex 111.82692200686998 -18.91935311127758 0.0
    vertex 107.51459405163558 -23.83662072016893 3.9999999999999996
    vertex 107.51459405163558 -23.83662072016893 0.0
  endloop
endfacet
facet normal 0.7518398074789773 -0.6593458151000691 0.0
  outer loop
    vertex 107.51459405163558 -23.83662072016893 3.9999999999999996
    vertex 111.82692200686998 -18.91935311127758 0.0
    vertex 111.82692200686998 -18.91935311127758 3.9999999999999996
  endloop
endfacet
facet normal -0.659345815100069 -0.7518398074789775 -0.0
  outer loop
    vertex 41.72118354187219 -28.148948675403282 3.9999999999999996
    vertex 36.80391593298086 -23.836620720168906 0.0
    vertex 41.72118354187219 -28.148948675403282 0.0
  endloop
endfacet
facet normal -0.659345815100069 -0.7518398074789775 -0.0
  outer loop
    vertex 36.80391593298086 -23.836620720168906 0.0
    vertex 41.72118354187219 -28.148948675403282 3.9999999999999996
    vertex 36.80391593298086 -23.836620720168906 3.9999999999999996
  endloop
endfacet
facet normal -0.8968727415326883 0.44228869021900147 0.0
  outer loop
    vertex 28.857984803086303 36.51871833915847 3.9999999999999996
    vertex 25.965278366743895 30.652889957412956 0.0
    vertex 25.965278366743895 30.652889957412956 3.9999999999999996
  endloop
endfacet
facet normal -0.8968727415326883 0.44228869021900147 0.0
  outer loop
    vertex 25.965278366743895 30.652889957412956 0.0
    vertex 28.857984803086303 36.51871833915847 3.9999999999999996
    vertex 28.857984803086303 36.51871833915847 0.0
  endloop
endfacet
facet normal -0.8314696123025453 -0.555570233019602 -0.0
  outer loop
    vertex 28.857984803086296 -13.481281660841521 3.9999999999999996
    vertex 32.49158797774646 -18.919353111277548 0.0
    vertex 32.49158797774646 -18.919353111277548 3.9999999999999996
  endloop
endfacet
facet normal -0.8314696123025453 -0.555570233019602 -0.0
  outer loop
    vertex 32.49158797774646 -18.919353111277548 0.0
    vertex 28.857984803086296 -13.481281660841521 3.9999999999999996
    vertex 28.857984803086296 -13.481281660841521 0.0
  endloop
endfacet
facet normal -0.9978589232386036 0.06540312923014314 0.0
  outer loop
    vertex 22.587011923617716 18.04502795016105 3.9999999999999996
    vertex 22.159254992308234 11.518718339158466 0.0
    vertex 22.159254992308234 11.518718339158466 3.9999999999999996
  endloop
endfacet
facet normal -0.9978589232386036 0.06540312923014314 0.0
  outer loop
    vertex 22.159254992308234 11.518718339158466 0.0
    vertex 22.587011923617716 18.04502795016105 3.9999999999999996
    vertex 22.587011923617716 18.04502795016105 0.0
  endloop
endfacet
facet normal -0.5555702330196038 0.8314696123025442 0.0
  outer loop
    vertex 41.72118354187221 51.186385353720226 3.9999999999999996
    vertex 47.159254992308234 54.81998852838041 0.0
    vertex 41.72118354187221 51.186385353720226 0.0
  endloop
endfacet
facet normal -0.5555702330196038 0.8314696123025442 0.0
  outer loop
    vertex 47.159254992308234 54.81998852838041 0.0
    vertex 41.72118354187221 51.186385353720226 3.9999999999999996
    vertex 47.159254992308234 54.81998852838041 3.9999999999999996
  endloop
endfacet
facet normal -0.19509032201612803 -0.9807852804032304 -0.0
  outer loop
    vertex 65.63294538130563 -38.05352472953204 3.9999999999999996
    vertex 59.218302737182185 -36.777572975294945 0.0
    vertex 65.63294538130563 -38.05352472953204 0.0
  endloop
endfacet
facet normal -0.19509032201612803 -0.9807852804032304 -0.0
  outer loop
    vertex 59.218302737182185 -36.777572975294945 0.0
    vertex 65.63294538130563 -38.05352472953204 3.9999999999999996
    vertex 59.218302737182185 -36.777572975294945 3.9999999999999996
  endloop
endfacet
facet normal 0.321439465303162 -0.9469301294951057 0.0
  outer loop
    vertex 91.2934266105627 -34.67525828640588 3.9999999999999996
    vertex 85.10020724743424 -36.77757297529496 0.0
    vertex 91.2934266105627 -34.67525828640588 0.0
  endloop
endfacet
facet normal 0.321439465303162 -0.9469301294951057 0.0
  outer loop
    vertex 85.10020724743424 -36.77757297529496 0.0
    vertex 91.2934266105627 -34.67525828640588 3.9999999999999996
    vertex 85.10020724743424 -36.77757297529496 3.9999999999999996
  endloop
endfacet
facet normal -0.4422886902190018 -0.896872741532688 -0.0
  outer loop
    vertex 53.02508337405374 -34.67525828640588 3.9999999999999996
    vertex 47.15925499230822 -31.78255185006346 0.0
    vertex 53.02508337405374 -34.67525828640588 0.0
  endloop
endfacet
facet normal -0.4422886902190018 -0.896872741532688 -0.0
  outer loop
    vertex 47.15925499230822 -31.78255185006346 0.0
    vertex 53.02508337405374 -34.67525828640588 3.9999999999999996
    vertex 47.15925499230822 -31.78255185006346 3.9999999999999996
  endloop
endfacet
facet normal -0.8968727415326883 -0.44228869021900147 -0.0
  outer loop
    vertex 25.965278366743892 -7.615453279096009 3.9999999999999996
    vertex 28.857984803086296 -13.481281660841521 0.0
    vertex 28.857984803086296 -13.481281660841521 3.9999999999999996
  endloop
endfacet
facet normal -0.8968727415326883 -0.44228869021900147 -0.0
  outer loop
    vertex 28.857984803086296 -13.481281660841521 0.0
    vertex 25.965278366743892 -7.615453279096009 3.9999999999999996
    vertex 25.965278366743892 -7.615453279096009 0.0
  endloop
endfacet
facet normal -0.6593458151000686 0.7518398074789776 0.0
  outer loop
    vertex 36.80391593298086 46.87405739848584 3.9999999999999996
    vertex 41.72118354187221 51.186385353720226 0.0
    vertex 36.80391593298086 46.87405739848584 0.0
  endloop
endfacet
facet normal -0.6593458151000686 0.7518398074789776 0.0
  outer loop
    vertex 41.72118354187221 51.186385353720226 0.0
    vertex 36.80391593298086 46.87405739848584 3.9999999999999996
    vertex 41.72118354187221 51.186385353720226 3.9999999999999996
  endloop
endfacet
facet normal -0.7518398074789779 -0.6593458151000682 -0.0
  outer loop
    vertex 32.49158797774646 -18.919353111277548 3.9999999999999996
    vertex 36.80391593298086 -23.836620720168906 0.0
    vertex 36.80391593298086 -23.836620720168906 3.9999999999999996
  endloop
endfacet
facet normal -0.7518398074789779 -0.6593458151000682 -0.0
  outer loop
    vertex 36.80391593298086 -23.836620720168906 0.0
    vertex 32.49158797774646 -18.919353111277548 3.9999999999999996
    vertex 32.49158797774646 -18.919353111277548 0.0
  endloop
endfacet
facet normal -0.0654031292301439 -0.9978589232386036 -0.0
  outer loop
    vertex 72.15925499230822 -38.48128166084153 2.4999999999999996
    vertex 65.63294538130563 -38.05352472953204 0.0
    vertex 72.15925499230822 -38.48128166084153 0.0
  endloop
endfacet
facet normal -0.0654031292301439 -0.9978589232386036 -0.0
  outer loop
    vertex 65.63294538130563 -38.05352472953204 0.0
    vertex 72.15925499230822 -38.48128166084153 2.4999999999999996
    vertex 69.60925499230824 -38.314145830662675 2.4999999999999982
  endloop
endfacet
facet normal -0.0654031292301439 -0.9978589232386036 -0.0
  outer loop
    vertex 69.60925499230824 -38.314145830662675 2.4999999999999982
    vertex 65.63294538130563 -38.05352472953204 3.9999999999999996
    vertex 65.63294538130563 -38.05352472953204 0.0
  endloop
endfacet
facet normal -0.0654031292301439 -0.9978589232386036 -0.0
  outer loop
    vertex 65.63294538130563 -38.05352472953204 3.9999999999999996
    vertex 69.60925499230824 -38.314145830662675 2.4999999999999982
    vertex 69.60925499230824 -38.314145830662675 3.9999999999999982
  endloop
endfacet
facet normal -0.751839807478978 0.6593458151000681 0.0
  outer loop
    vertex 36.80391593298086 46.87405739848584 3.9999999999999996
    vertex 32.49158797774648 41.956789789594495 0.0
    vertex 32.49158797774648 41.956789789594495 3.9999999999999996
  endloop
endfacet
facet normal -0.751839807478978 0.6593458151000681 0.0
  outer loop
    vertex 32.49158797774648 41.956789789594495 0.0
    vertex 36.80391593298086 46.87405739848584 3.9999999999999996
    vertex 36.80391593298086 46.87405739848584 0.0
  endloop
endfacet
facet normal -0.9807852804032305 -0.19509032201612822 -0.0
  outer loop
    vertex 22.58701192361771 4.992408728155909 3.9999999999999996
    vertex 23.862963677854818 -1.4222339159675585 0.0
    vertex 23.862963677854818 -1.4222339159675585 3.9999999999999996
  endloop
endfacet
facet normal -0.9807852804032305 -0.19509032201612822 -0.0
  outer loop
    vertex 23.862963677854818 -1.4222339159675585 0.0
    vertex 22.58701192361771 4.992408728155909 3.9999999999999996
    vertex 22.58701192361771 4.992408728155909 0.0
  endloop
endfacet
facet normal -0.3214394653031609 -0.946930129495106 -0.0
  outer loop
    vertex 59.218302737182185 -36.777572975294945 3.9999999999999996
    vertex 53.02508337405374 -34.67525828640588 0.0
    vertex 59.218302737182185 -36.777572975294945 0.0
  endloop
endfacet
facet normal -0.3214394653031609 -0.946930129495106 -0.0
  outer loop
    vertex 53.02508337405374 -34.67525828640588 0.0
    vertex 59.218302737182185 -36.777572975294945 3.9999999999999996
    vertex 53.02508337405374 -34.67525828640588 3.9999999999999996
  endloop
endfacet
facet normal 0.06540312923014228 -0.9978589232386036 0.0
  outer loop
    vertex 78.68556460331081 -38.05352472953206 3.9999999999999996
    vertex 72.15925499230822 -38.48128166084153 0.0
    vertex 78.68556460331081 -38.05352472953206 0.0
  endloop
endfacet
facet normal 0.06540312923014228 -0.9978589232386036 0.0
  outer loop
    vertex 72.15925499230822 -38.48128166084153 0.0
    vertex 78.68556460331081 -38.05352472953206 3.9999999999999996
    vertex 74.70925499230823 -38.314145830662675 2.4999999999999996
  endloop
endfacet
facet normal 0.06540312923014228 -0.9978589232386036 0.0
  outer loop
    vertex 74.70925499230823 -38.314145830662675 2.4999999999999996
    vertex 78.68556460331081 -38.05352472953206 3.9999999999999996
    vertex 74.70925499230823 -38.314145830662675 3.9999999999999996
  endloop
endfacet
facet normal 0.06540312923014228 -0.9978589232386036 0.0
  outer loop
    vertex 72.15925499230822 -38.48128166084153 2.4999999999999996
    vertex 72.15925499230822 -38.48128166084153 0.0
    vertex 74.70925499230823 -38.314145830662675 2.4999999999999996
  endloop
endfacet
facet normal -0.9469301294951059 -0.3214394653031612 -0.0
  outer loop
    vertex 23.862963677854818 -1.4222339159675585 3.9999999999999996
    vertex 25.965278366743892 -7.615453279096009 0.0
    vertex 25.965278366743892 -7.615453279096009 3.9999999999999996
  endloop
endfacet
facet normal -0.9469301294951059 -0.3214394653031612 -0.0
  outer loop
    vertex 25.965278366743892 -7.615453279096009 0.0
    vertex 23.862963677854818 -1.4222339159675585 3.9999999999999996
    vertex 23.862963677854818 -1.4222339159675585 0.0
  endloop
endfacet
facet normal -0.9807852804032305 0.19509032201612822 0.0
  outer loop
    vertex 23.86296367785482 24.459670594284514 3.9999999999999996
    vertex 22.587011923617716 18.04502795016105 0.0
    vertex 22.587011923617716 18.04502795016105 3.9999999999999996
  endloop
endfacet
facet normal -0.9807852804032305 0.19509032201612822 0.0
  outer loop
    vertex 22.587011923617716 18.04502795016105 0.0
    vertex 23.86296367785482 24.459670594284514 3.9999999999999996
    vertex 23.86296367785482 24.459670594284514 0.0
  endloop
endfacet
facet normal -0.321439465303162 0.9469301294951057 0.0
  outer loop
    vertex 53.02508337405374 57.71269496472281 3.9999999999999996
    vertex 59.2183027371822 59.81500965361188 0.0
    vertex 53.02508337405374 57.71269496472281 0.0
  endloop
endfacet
facet normal -0.321439465303162 0.9469301294951057 0.0
  outer loop
    vertex 59.2183027371822 59.81500965361188 0.0
    vertex 53.02508337405374 57.71269496472281 3.9999999999999996
    vertex 59.2183027371822 59.81500965361188 3.9999999999999996
  endloop
endfacet
facet normal 0.5555702330196031 -0.8314696123025448 0.0
  outer loop
    vertex 102.59732644274426 -28.148948675403297 3.9999999999999996
    vertex 97.15925499230822 -31.78255185006348 0.0
    vertex 102.59732644274426 -28.148948675403297 0.0
  endloop
endfacet
facet normal 0.5555702330196031 -0.8314696123025448 0.0
  outer loop
    vertex 97.15925499230822 -31.78255185006348 0.0
    vertex 102.59732644274426 -28.148948675403297 3.9999999999999996
    vertex 97.15925499230822 -31.78255185006348 3.9999999999999996
  endloop
endfacet
facet normal -0.5555702330196026 -0.831469612302545 -0.0
  outer loop
    vertex 47.15925499230822 -31.78255185006346 3.9999999999999996
    vertex 41.72118354187219 -28.148948675403282 0.0
    vertex 47.15925499230822 -31.78255185006346 0.0
  endloop
endfacet
facet normal -0.5555702330196026 -0.831469612302545 -0.0
  outer loop
    vertex 41.72118354187219 -28.148948675403282 0.0
    vertex 47.15925499230822 -31.78255185006346 3.9999999999999996
    vertex 41.72118354187219 -28.148948675403282 3.9999999999999996
  endloop
endfacet
facet normal 0.6593458151000688 -0.7518398074789775 0.0
  outer loop
    vertex 107.51459405163558 -23.83662072016893 3.9999999999999996
    vertex 102.59732644274426 -28.148948675403297 0.0
    vertex 107.51459405163558 -23.83662072016893 0.0
  endloop
endfacet
facet normal 0.6593458151000688 -0.7518398074789775 0.0
  outer loop
    vertex 102.59732644274426 -28.148948675403297 0.0
    vertex 107.51459405163558 -23.83662072016893 3.9999999999999996
    vertex 102.59732644274426 -28.148948675403297 3.9999999999999996
  endloop
endfacet
facet normal 0.19509032201612803 -0.9807852804032304 0.0
  outer loop
    vertex 85.10020724743424 -36.77757297529496 3.9999999999999996
    vertex 78.68556460331081 -38.05352472953206 0.0
    vertex 85.10020724743424 -36.77757297529496 0.0
  endloop
endfacet
facet normal 0.19509032201612803 -0.9807852804032304 0.0
  outer loop
    vertex 78.68556460331081 -38.05352472953206 0.0
    vertex 85.10020724743424 -36.77757297529496 3.9999999999999996
    vertex 78.68556460331081 -38.05352472953206 3.9999999999999996
  endloop
endfacet
facet normal -0.19509032201612606 0.9807852804032309 0.0
  outer loop
    vertex 59.2183027371822 59.81500965361188 3.9999999999999996
    vertex 65.63294538130565 61.09096140784897 0.0
    vertex 59.2183027371822 59.81500965361188 0.0
  endloop
endfacet
facet normal -0.19509032201612606 0.9807852804032309 0.0
  outer loop
    vertex 65.63294538130565 61.09096140784897 0.0
    vertex 59.2183027371822 59.81500965361188 3.9999999999999996
    vertex 65.63294538130565 61.09096140784897 3.9999999999999996
  endloop
endfacet
facet normal -0.4422886902190001 0.8968727415326889 0.0
  outer loop
    vertex 47.159254992308234 54.81998852838041 3.9999999999999996
    vertex 53.02508337405374 57.71269496472281 0.0
    vertex 47.159254992308234 54.81998852838041 0.0
  endloop
endfacet
facet normal -0.4422886902190001 0.8968727415326889 0.0
  outer loop
    vertex 53.02508337405374 57.71269496472281 0.0
    vertex 47.159254992308234 54.81998852838041 3.9999999999999996
    vertex 53.02508337405374 57.71269496472281 3.9999999999999996
  endloop
endfacet
facet normal 0.6593458151000688 0.7518398074789775 0.0
  outer loop
    vertex 102.59732644274428 51.1863853537202 3.9999999999999996
    vertex 107.51459405163561 46.87405739848584 0.0
    vertex 102.59732644274428 51.1863853537202 0.0
  endloop
endfacet
facet normal 0.6593458151000688 0.7518398074789775 0.0
  outer loop
    vertex 107.51459405163561 46.87405739848584 0.0
    vertex 102.59732644274428 51.1863853537202 3.9999999999999996
    vertex 107.51459405163561 46.87405739848584 3.9999999999999996
  endloop
endfacet
facet normal -0.065403129230144 0.9978589232386036 0.0
  outer loop
    vertex 65.63294538130565 61.09096140784897 3.9999999999999996
    vertex 72.15925499230823 61.51871833915846 0.0
    vertex 65.63294538130565 61.09096140784897 0.0
  endloop
endfacet
facet normal -0.065403129230144 0.9978589232386036 0.0
  outer loop
    vertex 72.15925499230823 61.51871833915846 0.0
    vertex 65.63294538130565 61.09096140784897 3.9999999999999996
    vertex 72.15925499230823 61.51871833915846 3.9999999999999996
  endloop
endfacet
facet normal -0.9469301294951056 0.3214394653031617 0.0
  outer loop
    vertex 25.965278366743895 30.652889957412956 3.9999999999999996
    vertex 23.86296367785482 24.459670594284514 0.0
    vertex 23.86296367785482 24.459670594284514 3.9999999999999996
  endloop
endfacet
facet normal -0.9469301294951056 0.3214394653031617 0.0
  outer loop
    vertex 23.86296367785482 24.459670594284514 0.0
    vertex 25.965278366743895 30.652889957412956 3.9999999999999996
    vertex 25.965278366743895 30.652889957412956 0.0
  endloop
endfacet
facet normal -2.0213612555127855e-19 1.4011847388288054e-18 1.0
  outer loop
    vertex 78.68556460331081 -38.05352472953206 3.9999999999999996
    vertex 74.70925499230823 16.518718339158468 3.999999999999998
    vertex 74.70925499230823 -38.314145830662675 3.9999999999999996
  endloop
endfacet
facet normal -2.0213612555127855e-19 1.4011847388288054e-18 1.0
  outer loop
    vertex 22.58701192361771 4.992408728155909 3.9999999999999996
    vertex 22.587011923617716 18.04502795016105 3.9999999999999996
    vertex 22.159254992308234 11.518718339158466 3.9999999999999996
  endloop
endfacet
facet normal -2.0213612555127855e-19 1.4011847388288054e-18 1.0
  outer loop
    vertex 22.587011923617716 18.04502795016105 3.9999999999999996
    vertex 22.58701192361771 4.992408728155909 3.9999999999999996
    vertex 23.862963677854818 -1.4222339159675585 3.9999999999999996
  endloop
endfacet
facet normal -2.0213612555127855e-19 1.4011847388288054e-18 1.0
  outer loop
    vertex 22.587011923617716 18.04502795016105 3.9999999999999996
    vertex 23.862963677854818 -1.4222339159675585 3.9999999999999996
    vertex 23.86296367785482 24.459670594284514 3.9999999999999996
  endloop
endfacet
facet normal -2.0213612555127855e-19 1.4011847388288054e-18 1.0
  outer loop
    vertex 23.86296367785482 24.459670594284514 3.9999999999999996
    vertex 23.862963677854818 -1.4222339159675585 3.9999999999999996
    vertex 25.965278366743892 -7.615453279096009 3.9999999999999996
  endloop
endfacet
facet normal -2.0213612555127855e-19 1.4011847388288054e-18 1.0
  outer loop
    vertex 23.86296367785482 24.459670594284514 3.9999999999999996
    vertex 25.965278366743892 -7.615453279096009 3.9999999999999996
    vertex 25.965278366743895 30.652889957412956 3.9999999999999996
  endloop
endfacet
facet normal -2.0213612555127855e-19 1.4011847388288054e-18 1.0
  outer loop
    vertex 25.965278366743895 30.652889957412956 3.9999999999999996
    vertex 25.965278366743892 -7.615453279096009 3.9999999999999996
    vertex 28.857984803086296 -13.481281660841521 3.9999999999999996
  endloop
endfacet
facet normal -2.0213612555127855e-19 1.4011847388288054e-18 1.0
  outer loop
    vertex 25.965278366743895 30.652889957412956 3.9999999999999996
    vertex 28.857984803086296 -13.481281660841521 3.9999999999999996
    vertex 28.857984803086303 36.51871833915847 3.9999999999999996
  endloop
endfacet
facet normal -2.0213612555127855e-19 1.4011847388288054e-18 1.0
  outer loop
    vertex 28.857984803086303 36.51871833915847 3.9999999999999996
    vertex 28.857984803086296 -13.481281660841521 3.9999999999999996
    vertex 32.49158797774646 -18.919353111277548 3.9999999999999996
  endloop
endfacet
facet normal -2.0213612555127855e-19 1.4011847388288054e-18 1.0
  outer loop
    vertex 28.857984803086303 36.51871833915847 3.9999999999999996
    vertex 32.49158797774646 -18.919353111277548 3.9999999999999996
    vertex 32.49158797774648 41.956789789594495 3.9999999999999996
  endloop
endfacet
facet normal -2.0213612555127855e-19 1.4011847388288054e-18 1.0
  outer loop
    vertex 32.49158797774648 41.956789789594495 3.9999999999999996
    vertex 32.49158797774646 -18.919353111277548 3.9999999999999996
    vertex 36.80391593298086 -23.836620720168906 3.9999999999999996
  endloop
endfacet
facet normal -2.0213612555127855e-19 1.4011847388288054e-18 1.0
  outer loop
    vertex 32.49158797774648 41.956789789594495 3.9999999999999996
    vertex 36.80391593298086 -23.836620720168906 3.9999999999999996
    vertex 36.80391593298086 46.87405739848584 3.9999999999999996
  endloop
endfacet
facet normal -2.0213612555127855e-19 1.4011847388288054e-18 1.0
  outer loop
    vertex 36.80391593298086 46.87405739848584 3.9999999999999996
    vertex 36.80391593298086 -23.836620720168906 3.9999999999999996
    vertex 41.72118354187219 -28.148948675403282 3.9999999999999996
  endloop
endfacet
facet normal -2.0213612555127855e-19 1.4011847388288054e-18 1.0
  outer loop
    vertex 36.80391593298086 46.87405739848584 3.9999999999999996
    vertex 41.72118354187219 -28.148948675403282 3.9999999999999996
    vertex 41.72118354187221 51.186385353720226 3.9999999999999996
  endloop
endfacet
facet normal -2.0213612555127855e-19 1.4011847388288054e-18 1.0
  outer loop
    vertex 41.72118354187221 51.186385353720226 3.9999999999999996
    vertex 41.72118354187219 -28.148948675403282 3.9999999999999996
    vertex 47.15925499230822 -31.78255185006346 3.9999999999999996
  endloop
endfacet
facet normal -2.0213612555127855e-19 1.4011847388288054e-18 1.0
  outer loop
    vertex 41.72118354187221 51.186385353720226 3.9999999999999996
    vertex 47.15925499230822 -31.78255185006346 3.9999999999999996
    vertex 47.159254992308234 54.81998852838041 3.9999999999999996
  endloop
endfacet
facet normal -2.0213612555127855e-19 1.4011847388288054e-18 1.0
  outer loop
    vertex 47.159254992308234 54.81998852838041 3.9999999999999996
    vertex 47.15925499230822 -31.78255185006346 3.9999999999999996
    vertex 53.02508337405374 -34.67525828640588 3.9999999999999996
  endloop
endfacet
facet normal -2.0213612555127855e-19 1.4011847388288054e-18 1.0
  outer loop
    vertex 47.159254992308234 54.81998852838041 3.9999999999999996
    vertex 53.02508337405374 -34.67525828640588 3.9999999999999996
    vertex 53.02508337405374 57.71269496472281 3.9999999999999996
  endloop
endfacet
facet normal -2.0213612555127855e-19 1.4011847388288054e-18 1.0
  outer loop
    vertex 53.02508337405374 57.71269496472281 3.9999999999999996
    vertex 53.02508337405374 -34.67525828640588 3.9999999999999996
    vertex 59.218302737182185 -36.777572975294945 3.9999999999999996
  endloop
endfacet
facet normal -2.0213612555127855e-19 1.4011847388288054e-18 1.0
  outer loop
    vertex 53.02508337405374 57.71269496472281 3.9999999999999996
    vertex 59.218302737182185 -36.777572975294945 3.9999999999999996
    vertex 59.2183027371822 59.81500965361188 3.9999999999999996
  endloop
endfacet
facet normal -2.0213612555127855e-19 1.4011847388288054e-18 1.0
  outer loop
    vertex 59.2183027371822 59.81500965361188 3.9999999999999996
    vertex 59.218302737182185 -36.777572975294945 3.9999999999999996
    vertex 65.63294538130563 -38.05352472953204 3.9999999999999996
  endloop
endfacet
facet normal -2.0213612555127855e-19 1.4011847388288054e-18 1.0
  outer loop
    vertex 59.2183027371822 59.81500965361188 3.9999999999999996
    vertex 65.63294538130563 -38.05352472953204 3.9999999999999996
    vertex 65.63294538130565 61.09096140784897 3.9999999999999996
  endloop
endfacet
facet normal -2.0213612555127855e-19 1.4011847388288054e-18 1.0
  outer loop
    vertex 65.63294538130565 61.09096140784897 3.9999999999999996
    vertex 65.63294538130563 -38.05352472953204 3.9999999999999996
    vertex 69.60925499230824 -38.314145830662675 3.9999999999999982
  endloop
endfacet
facet normal -2.0213612555127855e-19 1.4011847388288054e-18 1.0
  outer loop
    vertex 65.63294538130565 61.09096140784897 3.9999999999999996
    vertex 69.60925499230824 -38.314145830662675 3.9999999999999982
    vertex 69.60925499230824 16.518718339158468 3.9999999999999956
  endloop
endfacet
facet normal -2.0213612555127855e-19 1.4011847388288054e-18 1.0
  outer loop
    vertex 65.63294538130565 61.09096140784897 3.9999999999999996
    vertex 69.60925499230824 16.518718339158468 3.9999999999999956
    vertex 72.15925499230823 61.51871833915846 3.9999999999999996
  endloop
endfacet
facet normal -2.0213612555127855e-19 1.4011847388288054e-18 1.0
  outer loop
    vertex 72.15925499230823 61.51871833915846 3.9999999999999996
    vertex 69.60925499230824 16.518718339158468 3.9999999999999956
    vertex 74.70925499230823 16.518718339158468 3.999999999999998
  endloop
endfacet
facet normal -2.0213612555127855e-19 1.4011847388288054e-18 1.0
  outer loop
    vertex 72.15925499230823 61.51871833915846 3.9999999999999996
    vertex 74.70925499230823 16.518718339158468 3.999999999999998
    vertex 78.68556460331087 61.09096140784897 3.9999999999999996
  endloop
endfacet
facet normal -2.0213612555127855e-19 1.4011847388288054e-18 1.0
  outer loop
    vertex 78.68556460331087 61.09096140784897 3.9999999999999996
    vertex 74.70925499230823 16.518718339158468 3.999999999999998
    vertex 78.68556460331081 -38.05352472953206 3.9999999999999996
  endloop
endfacet
facet normal -2.0213612555127855e-19 1.4011847388288054e-18 1.0
  outer loop
    vertex 78.68556460331087 61.09096140784897 3.9999999999999996
    vertex 78.68556460331081 -38.05352472953206 3.9999999999999996
    vertex 85.10020724743424 -36.77757297529496 3.9999999999999996
  endloop
endfacet
facet normal -2.0213612555127855e-19 1.4011847388288054e-18 1.0
  outer loop
    vertex 78.68556460331087 61.09096140784897 3.9999999999999996
    vertex 85.10020724743424 -36.77757297529496 3.9999999999999996
    vertex 85.10020724743431 59.81500965361186 3.9999999999999996
  endloop
endfacet
facet normal -2.0213612555127855e-19 1.4011847388288054e-18 1.0
  outer loop
    vertex 85.10020724743431 59.81500965361186 3.9999999999999996
    vertex 85.10020724743424 -36.77757297529496 3.9999999999999996
    vertex 91.2934266105627 -34.67525828640588 3.9999999999999996
  endloop
endfacet
facet normal -2.0213612555127855e-19 1.4011847388288054e-18 1.0
  outer loop
    vertex 85.10020724743431 59.81500965361186 3.9999999999999996
    vertex 91.2934266105627 -34.67525828640588 3.9999999999999996
    vertex 91.29342661056276 57.71269496472278 3.9999999999999996
  endloop
endfacet
facet normal -2.0213612555127855e-19 1.4011847388288054e-18 1.0
  outer loop
    vertex 91.29342661056276 57.71269496472278 3.9999999999999996
    vertex 91.2934266105627 -34.67525828640588 3.9999999999999996
    vertex 97.15925499230822 -31.78255185006348 3.9999999999999996
  endloop
endfacet
facet normal -2.0213612555127855e-19 1.4011847388288054e-18 1.0
  outer loop
    vertex 91.29342661056276 57.71269496472278 3.9999999999999996
    vertex 97.15925499230822 -31.78255185006348 3.9999999999999996
    vertex 97.15925499230825 54.819988528380385 3.9999999999999996
  endloop
endfacet
facet normal -2.0213612555127855e-19 1.4011847388288054e-18 1.0
  outer loop
    vertex 97.15925499230825 54.819988528380385 3.9999999999999996
    vertex 97.15925499230822 -31.78255185006348 3.9999999999999996
    vertex 102.59732644274426 -28.148948675403297 3.9999999999999996
  endloop
endfacet
facet normal -2.0213612555127855e-19 1.4011847388288054e-18 1.0
  outer loop
    vertex 97.15925499230825 54.819988528380385 3.9999999999999996
    vertex 102.59732644274426 -28.148948675403297 3.9999999999999996
    vertex 102.59732644274428 51.1863853537202 3.9999999999999996
  endloop
endfacet
facet normal -2.0213612555127855e-19 1.4011847388288054e-18 1.0
  outer loop
    vertex 102.59732644274428 51.1863853537202 3.9999999999999996
    vertex 102.59732644274426 -28.148948675403297 3.9999999999999996
    vertex 107.51459405163558 -23.83662072016893 3.9999999999999996
  endloop
endfacet
facet normal -2.0213612555127855e-19 1.4011847388288054e-18 1.0
  outer loop
    vertex 102.59732644274428 51.1863853537202 3.9999999999999996
    vertex 107.51459405163558 -23.83662072016893 3.9999999999999996
    vertex 107.51459405163561 46.87405739848584 3.9999999999999996
  endloop
endfacet
facet normal -2.0213612555127855e-19 1.4011847388288054e-18 1.0
  outer loop
    vertex 107.51459405163561 46.87405739848584 3.9999999999999996
    vertex 107.51459405163558 -23.83662072016893 3.9999999999999996
    vertex 111.82692200686998 -18.91935311127758 3.9999999999999996
  endloop
endfacet
facet normal -2.0213612555127855e-19 1.4011847388288054e-18 1.0
  outer loop
    vertex 107.51459405163561 46.87405739848584 3.9999999999999996
    vertex 111.82692200686998 -18.91935311127758 3.9999999999999996
    vertex 111.82692200687002 41.956789789594445 3.9999999999999996
  endloop
endfacet
facet normal -2.0213612555127855e-19 1.4011847388288054e-18 1.0
  outer loop
    vertex 111.82692200687002 41.956789789594445 3.9999999999999996
    vertex 111.82692200686998 -18.91935311127758 3.9999999999999996
    vertex 115.46052518153016 -13.481281660841555 3.9999999999999996
  endloop
endfacet
facet normal -2.0213612555127855e-19 1.4011847388288054e-18 1.0
  outer loop
    vertex 111.82692200687002 41.956789789594445 3.9999999999999996
    vertex 115.46052518153016 -13.481281660841555 3.9999999999999996
    vertex 115.46052518153019 36.51871833915842 3.9999999999999996
  endloop
endfacet
facet normal -2.0213612555127855e-19 1.4011847388288054e-18 1.0
  outer loop
    vertex 115.46052518153019 36.51871833915842 3.9999999999999996
    vertex 115.46052518153016 -13.481281660841555 3.9999999999999996
    vertex 118.35323161787255 -7.615453279096044 3.9999999999999996
  endloop
endfacet
facet normal -2.0213612555127855e-19 1.4011847388288054e-18 1.0
  outer loop
    vertex 115.46052518153019 36.51871833915842 3.9999999999999996
    vertex 118.35323161787255 -7.615453279096044 3.9999999999999996
    vertex 118.35323161787258 30.65288995741293 3.9999999999999996
  endloop
endfacet
facet normal -2.0213612555127855e-19 1.4011847388288054e-18 1.0
  outer loop
    vertex 118.35323161787258 30.65288995741293 3.9999999999999996
    vertex 118.35323161787255 -7.615453279096044 3.9999999999999996
    vertex 120.45554630676163 -1.4222339159676036 3.9999999999999996
  endloop
endfacet
facet normal -2.0213612555127855e-19 1.4011847388288054e-18 1.0
  outer loop
    vertex 118.35323161787258 30.65288995741293 3.9999999999999996
    vertex 120.45554630676163 -1.4222339159676036 3.9999999999999996
    vertex 120.45554630676166 24.459670594284493 3.9999999999999996
  endloop
endfacet
facet normal -2.0213612555127855e-19 1.4011847388288054e-18 1.0
  outer loop
    vertex 120.45554630676166 24.459670594284493 3.9999999999999996
    vertex 120.45554630676163 -1.4222339159676036 3.9999999999999996
    vertex 121.73149806099875 4.992408728155841 3.9999999999999996
  endloop
endfacet
facet normal -2.0213612555127855e-19 1.4011847388288054e-18 1.0
  outer loop
    vertex 120.45554630676166 24.459670594284493 3.9999999999999996
    vertex 121.73149806099875 4.992408728155841 3.9999999999999996
    vertex 121.73149806099877 18.045027950161025 3.9999999999999996
  endloop
endfacet
facet normal -2.0213612555127855e-19 1.4011847388288054e-18 1.0
  outer loop
    vertex 121.73149806099877 18.045027950161025 3.9999999999999996
    vertex 121.73149806099875 4.992408728155841 3.9999999999999996
    vertex 122.15925499230823 11.518718339158466 3.9999999999999996
  endloop
endfacet
facet normal 0.06540312923014355 0.9978589232386035 0.0
  outer loop
    vertex 72.15925499230823 61.51871833915846 3.9999999999999996
    vertex 78.68556460331087 61.09096140784897 0.0
    vertex 72.15925499230823 61.51871833915846 0.0
  endloop
endfacet
facet normal 0.06540312923014355 0.9978589232386035 0.0
  outer loop
    vertex 78.68556460331087 61.09096140784897 0.0
    vertex 72.15925499230823 61.51871833915846 3.9999999999999996
    vertex 78.68556460331087 61.09096140784897 3.9999999999999996
  endloop
endfacet
endsolid flipflat
